<svg xmlns="http://www.w3.org/2000/svg" width="21.04" height="15.878" viewBox="0 0 21.04 15.878">
  <g id="Group_35" data-name="Group 35" transform="translate(-1182.48 -17.061)">
    <g id="メールの無料アイコンその10" transform="translate(1182.48 -45.738)">
      <path id="Path_1" data-name="Path 1" d="M20.016,63.822A3.488,3.488,0,0,0,17.545,62.8H3.495A3.494,3.494,0,0,0,0,66.293v8.89a3.494,3.494,0,0,0,3.495,3.495H17.545a3.494,3.494,0,0,0,3.495-3.495v-8.89A3.488,3.488,0,0,0,20.016,63.822Zm-.564,11.361a1.907,1.907,0,0,1-1.907,1.907H3.495a1.907,1.907,0,0,1-1.907-1.907v-8.89a1.907,1.907,0,0,1,1.907-1.907H17.545a1.907,1.907,0,0,1,1.907,1.907v8.89Z" transform="translate(0 0)" fill="#5db3b6"/>
      <path id="Path_2" data-name="Path 2" d="M85.537,123.37l-6.229,6.266a.983.983,0,0,1-1.393,0l0,0-6.233-6.269-.675.672,6.228,6.264v0a1.936,1.936,0,0,0,2.744,0l.006-.006,6.225-6.261Z" transform="translate(-68.091 -58.082)" fill="#5db3b6"/>
      <path id="Path_3" data-name="Path 3" d="M336.511,290.792l4.06,3.464.618-.725-4.061-3.464Z" transform="translate(-322.683 -217.929)" fill="#5db3b6"/>
      <rect id="Rectangle_5" data-name="Rectangle 5" width="0.953" height="5.337" transform="translate(3.152 76.327) rotate(-130.458)" fill="#5db3b6"/>
    </g>
  </g>
</svg>
