<svg xmlns="http://www.w3.org/2000/svg" width="30.781" height="23.794" viewBox="0 0 30.781 23.794">
  <g id="スマホアイコン_1_" data-name="スマホアイコン (1)" transform="translate(0 -58.102)">
    <path id="Path_4" data-name="Path 4" d="M165.916,72.955a1.449,1.449,0,0,0-.446-.437l-.01-.014.009.012a1.35,1.35,0,0,0-.669-.249l-10.267-1.1a2.49,2.49,0,0,0-2.374,1.44L144.5,90.478a1.414,1.414,0,0,0-.072,1.021,1.8,1.8,0,0,0,1.609,1.6l.4.043,2.256.241,6.123.653c1.059.113,2.093.349,3-.274,1.007-.689,1.449-1.828,2.062-3.332,2.3-5.64,3.914-9.629,6.312-15.225a2.376,2.376,0,0,0,.271-.989h0A2.068,2.068,0,0,0,165.916,72.955Zm-14,17.878a1.218,1.218,0,0,1-1.151.66.548.548,0,0,1-.47-.824,1.212,1.212,0,0,1,1.146-.659A.55.55,0,0,1,151.921,90.833Zm5.737-1.806-10.341-1.1,6.265-14.618,10.34,1.1Z" transform="translate(-135.689 -12.275)" fill="#fff"/>
    <path id="Path_5" data-name="Path 5" d="M4.718,58.922,3.94,58.1A12.61,12.61,0,0,0,.356,70.231l1.1-.267A11.484,11.484,0,0,1,4.718,58.922Z" transform="translate(0)" fill="#fff"/>
    <path id="Path_6" data-name="Path 6" d="M70.63,106.758a9.282,9.282,0,0,0-.118,4.822l1.1-.268a8.153,8.153,0,0,1,2.319-7.845l-.778-.822A9.27,9.27,0,0,0,70.63,106.758Z" transform="translate(-66.027 -41.865)" fill="#fff"/>
    <path id="Path_7" data-name="Path 7" d="M141.859,150.188a4.821,4.821,0,0,1,1.316-2.139l-.778-.821a5.939,5.939,0,0,0-1.694,5.735l1.1-.267A4.821,4.821,0,0,1,141.859,150.188Z" transform="translate(-132.083 -83.768)" fill="#fff"/>
  </g>
</svg>
